<?xml version="1.0" encoding="utf-8"?>
<!-- Svg Vector Icons : http://www.onlinewebfonts.com/icon -->
<!DOCTYPE svg PUBLIC "-//W3C//DTD SVG 1.1//EN" "http://www.w3.org/Graphics/SVG/1.1/DTD/svg11.dtd">
<svg version="1.1" xmlns="http://www.w3.org/2000/svg" xmlns:xlink="http://www.w3.org/1999/xlink" x="0px" y="0px" viewBox="0 0 1000 1000" enable-background="new 0 0 1000 1000" xml:space="preserve">
<metadata> Svg Vector Icons : http://www.onlinewebfonts.com/icon </metadata>
<g><g transform="translate(0.000000,511.000000) scale(0.100000,-0.100000)"><path d="M6473.6,4536.7C5237,4508,3699.9,4420,2032.6,4282.1c-1142.8-95.7-1732.4-158.9-1902.7-204.8c-34.5-9.6-34.5-24.9-23-224c24.9-438.4,233.5-2059.7,268-2084.6c11.5-7.7,126.3-7.7,252.7-1.9c218.2,11.5,233.5,9.6,245-23c49.8-162.7,384.8-2199.4,461.3-2812c65.1-522.6,122.5-1433.8,130.2-2073.1l3.8-371.4l-116.8-42.1c-162.7-59.3-239.3-109.1-291-183.8c-53.6-80.4-124.4-310.1-126.3-409.6c-1.9-65.1,5.7-80.4,55.5-109.1c187.6-111,851.8-84.2,1119.8,45.9c74.7,36.4,86.1,49.8,91.9,111c15.3,174.2-162.7,438.4-369.4,545.6c-57.4,30.6-105.3,68.9-105.3,84.2c-1.9,116.8-63.2,1236.6-86.1,1569.7c-70.8,1003-216.3,2218.6-403.9,3386.3c-24.9,162.7-44,296.7-42.1,300.5c11.5,9.6,2362.2,147.4,3393.9,199.1c1190.7,57.4,3334.6,95.7,3941.4,67l323.5-13.4l-11.5-798.2c-7.7-438.3-24.9-1223.2-42.1-1743.9c-15.3-520.7-36.4-1253.8-47.9-1627.1c-11.5-373.3-24.9-758-30.6-853.7l-11.5-176.1l-84.2-32.5c-120.6-46-268-168.5-317.8-264.2c-28.7-53.6-42.1-116.8-42.1-193.3c-1.9-109.1,0-112.9,90-195.2c126.3-114.9,300.5-168.5,549.4-168.5c354.1,0,574.3,141.7,574.3,371.4c0,160.8-93.8,273.7-319.7,386.7l-120.6,59.3v174.2c0,511.1,147.4,5063.1,162.7,5080.3c3.8,3.8,128.3,15.3,279.5,24.9c149.3,9.6,277.6,23,287.1,28.7c67,40.2,132.1,941.8,132.1,1847.2c0,354.1-3.8,398.2-34.5,425c-122.5,111-968.6,168.5-2367.9,162.7C7045.9,4544.4,6584.6,4540.6,6473.6,4536.7z M8933.3,4243.9c254.6-19.2,618.3-65.1,629.8-80.4c3.8-1.9-1.9-134-9.6-292.9c-51.7-949.5-76.6-1364.8-86.1-1408.9l-9.6-49.8l-1688.3-11.5c-2015.7-11.5-2323.9-24.9-4617.1-197.2c-1856.8-137.8-2186-160.8-2337.3-160.8H660.1l-23,139.7c-74.7,472.8-174.2,1571.6-143.6,1602.2c68.9,68.9,3401.6,350.3,4994.2,423C6701.3,4261.1,8447.1,4278.3,8933.3,4243.9z M9078.8-3432.1c137.8-70.8,243.1-298.6,157-335c-19.1-9.6-151.2-19.1-294.8-24.9c-233.5-7.7-269.9-3.8-350.3,30.6c-51.7,24.9-97.6,59.4-111,90c-19.1,42.1-15.3,57.4,34.5,120.6c86.1,107.2,199.1,157,358,157C8965.9-3393.9,9023.3-3405.4,9078.8-3432.1z M1764.6-3742.3c134-68.9,233.5-258.4,172.3-331.2c-68.9-84.2-589.6-139.7-733.1-80.4c-38.3,17.2-76.6,44-82.3,59.4c-17.2,42.1,86.1,218.2,166.5,285.2C1425.8-3692.5,1615.3-3667.6,1764.6-3742.3z"/><path d="M7059.3,3838c-7.6-88-5.7-335,1.9-551.3l15.3-392.4h105.3h105.3l-5.7,250.8c-5.7,298.6-34.5,275.6,321.6,258.4l239.3-11.5l11.5-124.4c7.7-68.9,13.4-195.3,15.3-281.4c1.9-174.2,13.4-187.6,135.9-162.7l67,15.3l-3.8,541.7c-1.9,591.5,0,576.2-112.9,576.2c-74.7,0-84.2-21.1-84.2-193.3c0-103.4-7.7-135.9-30.6-145.5c-15.3-5.7-151.2-3.8-300.5,5.8l-271.8,17.2l-5.7,164.6c-5.7,181.9-11.5,189.5-141.7,189.5C7070.8,3995,7070.8,3993.1,7059.3,3838z"/><path d="M6176.8,3876.3c-120.6-65.1-201-183.8-201-294.8c0-55.5,15.3-84.2,72.7-141.7c78.5-78.5,193.3-120.6,394.3-143.6c135.9-15.3,212.5-74.7,185.7-147.4c-22.9-67-97.6-91.9-306.3-105.3c-202.9-11.5-250.8,1.9-250.8,72.8c0,40.2-55.5,61.2-122.5,44c-95.7-23-51.7-166.5,70.8-231.6c47.9-26.8,107.2-32.5,281.4-32.5c369.4,1.9,555.1,80.4,555.1,237.4c0,151.2-162.7,285.2-453.7,375.2c-166.5,49.8-206.7,80.4-187.6,137.8c30.6,99.6,235.4,101.5,356,5.8l72.8-59.3l28.7,42.1c17.2,23,30.6,53.6,30.6,65.1c0,49.8-99.5,139.7-185.7,168.4C6416.1,3903.1,6232.4,3908.9,6176.8,3876.3z"/><path d="M4534.5,3830.4c-21.1-21.1-15.3-141.7,17.2-428.8c15.3-145.5,26.8-291,22.9-325.4l-5.7-61.3l-162.7,141.7c-90,78.5-273.7,246.9-407.7,375.2c-210.6,199.1-250.8,229.7-287.1,216.3c-38.3-15.3-42.1-28.7-38.3-162.7c1.9-130.2,93.8-853.7,109.1-869.1c3.8-1.9,49.8-9.6,105.3-17.2l97.6-11.5v84.2c0,45.9-13.4,170.4-28.7,275.6c-15.3,105.3-28.7,202.9-28.7,216.3c0,13.4,151.2-101.4,336.9-254.6c298.6-245,344.6-277.6,407.7-277.6c114.9,0,122.5,11.5,116.8,222.1c-1.9,105.3-17.2,344.6-34.4,534.1l-32.5,344.6l-86.1,5.7C4588,3841.9,4542.1,3838,4534.5,3830.4z"/><path d="M5265.7,3828.5c-9.6-63.2,95.7-947.5,114.9-964.8c5.7-7.7,38.3-19.1,68.9-24.9c112.9-23,112.9-23,57.4,488.1c-28.7,256.5-57.4,472.8-65.1,478.6C5422.7,3824.6,5267.6,3843.8,5265.7,3828.5z"/><path d="M2166.6,3765.3c-68.9-9.6-191.4-26.8-271.8-40.2l-149.3-21.1v-99.5c0-91.9,84.2-849.9,105.3-943.7c9.6-38.3,23-44,105.3-44h95.7v82.3c0,44-13.4,166.5-28.7,271.8c-15.3,105.3-28.7,201-28.7,214.4c0,26.8,53.6,38.3,254.6,53.6c166.5,15.3,185.7,30.6,145.5,126.3l-24.9,61.3l-134-15.3c-258.4-26.8-250.8-28.7-256.5,49.8c-5.7,65.1-1.9,70.8,55.5,82.3c32.5,5.7,141.6,11.5,241.2,11.5h179.9l-5.8,111l-5.7,109.1l-76.6,1.9C2325.4,3778.7,2235.5,3773,2166.6,3765.3z"/><path d="M3114.1,3707.9c-61.3-7.7-76.6-17.2-72.7-47.9c9.6-90,122.5-941.8,132.1-982c7.6-40.2,17.2-44,118.7-38.3l109.1,5.7l-3.8,114.8c-3.8,122.5-166.5,926.5-191.4,945.6C3198.3,3713.6,3156.2,3713.6,3114.1,3707.9z"/></g></g>
</svg>